<svg width="3032" height="1129" viewBox="0 0 3032 1129" fill="none" xmlns="http://www.w3.org/2000/svg">
<g clip-path="url(#clip0)">
<path d="M987.012 873.761C984.395 901.988 974.739 951.294 958.044 966.473C941.348 981.526 891.059 989.055 862.402 989.055C843.091 989.055 798.345 984.16 783.395 974.376C768.567 964.466 757.041 950.479 748.818 932.414C740.596 914.224 736.423 865.858 736.298 842.526V800.187C736.298 776.855 740.346 728.425 748.446 710.11C756.543 691.67 768.069 677.431 783.02 667.395C798.096 657.36 842.965 652.342 862.402 652.342C890.81 652.342 941.037 659.869 957.856 674.922C974.677 689.975 984.395 739.158 987.012 767.257H949.306C946.441 742.043 937.718 722.912 923.142 709.865C908.564 696.694 888.318 690.107 862.402 690.107C835.988 690.107 814.621 700.142 798.298 720.215C782.102 740.287 774.004 767.195 774.004 800.94V841.209C774.004 862.786 777.616 881.917 784.843 898.601C792.069 915.16 802.411 928.081 815.867 937.363C829.448 946.646 844.959 951.288 862.402 951.288C888.442 951.288 908.751 944.828 923.329 931.908C938.031 918.985 946.69 899.605 949.306 873.761H987.012Z" fill="black"/>
<path d="M1106.48 761.425L1093.4 760.296C1076.2 760.296 1061.81 765.941 1050.23 777.231C1038.64 788.396 1031.04 804.076 1027.43 824.273V957.686H1017.33V754.086H1027.43V796.424C1032.91 782.249 1041.13 771.021 1052.1 762.741C1063.06 754.462 1076.83 750.322 1093.4 750.322C1099.25 750.322 1103.99 751.011 1107.6 752.391L1106.48 761.425Z" fill="black"/>
<path d="M1210.76 941.878L1212.07 938.115L1281.97 754.084H1293.18L1202.73 993.061L1198.24 1004.35C1188.52 1028.06 1172.45 1039.92 1150.02 1039.92C1142.8 1039.92 1137.81 1039.22 1135.07 1037.85L1134.89 1028.25C1138.87 1029.38 1143.42 1029.94 1148.53 1029.94C1159.12 1029.94 1167.9 1026.81 1174.88 1020.53C1181.86 1014.39 1187.9 1004.29 1193.01 990.238L1205.34 956.555L1124.79 754.084H1135.82L1210.76 941.878Z" fill="black"/>
<path d="M1486.24 857.768C1486.24 889.506 1479.45 914.72 1465.87 933.413C1452.29 952.104 1433.79 961.451 1410.36 961.451C1395.04 961.451 1381.39 958.313 1369.43 952.041C1357.47 945.768 1348.13 937.113 1341.4 926.074V1035.96H1331.31V754.086H1341.4V790.403C1348.38 777.482 1357.78 767.572 1369.62 760.672C1381.46 753.771 1394.91 750.322 1409.99 750.322C1433.66 750.322 1452.29 759.48 1465.87 777.795C1479.45 795.984 1486.24 821.577 1486.24 854.568V857.768ZM1475.96 853.816C1475.96 824.587 1470.17 801.756 1458.58 785.321C1447.12 768.763 1430.98 760.483 1410.17 760.483C1393.23 760.483 1378.84 764.937 1367 773.844C1355.17 782.625 1346.63 795.295 1341.4 811.854V907.068C1346.63 921.12 1355.17 932.033 1367 939.811C1378.96 947.463 1393.48 951.288 1410.55 951.288C1431.23 951.288 1447.3 943.009 1458.77 926.45C1470.23 909.891 1475.96 885.681 1475.96 853.816Z" fill="black"/>
<path d="M2639.48 822.956H2472.45V971.488H2434.75V656.105H2658.54V693.87H2472.45V784.815H2639.48V822.956Z" fill="black"/>
<path d="M2688.68 957.686H2678.6V754.086H2688.68V957.686ZM2673.36 690.484C2673.36 687.598 2674.36 685.153 2676.34 683.146C2678.35 681.013 2680.76 679.946 2683.64 679.946C2686.51 679.946 2688.93 681.013 2690.93 683.146C2693.04 685.153 2694.1 687.598 2694.1 690.484C2694.1 693.369 2693.04 695.816 2690.93 697.823C2688.93 699.83 2686.51 700.834 2683.64 700.834C2680.76 700.834 2678.35 699.83 2676.34 697.823C2674.36 695.816 2673.36 693.369 2673.36 690.484Z" fill="black"/>
<path d="M2885.67 957.685C2883.18 949.03 2881.93 936.611 2881.93 920.429C2873.96 933.475 2863.05 943.574 2849.22 950.724C2835.38 957.875 2819.76 961.451 2802.32 961.451C2783.62 961.451 2768.54 956.369 2757.08 946.208C2745.75 935.922 2740.08 922.561 2740.08 906.128C2740.08 887.437 2748.43 872.507 2765.12 861.342C2781.95 850.052 2804.25 844.282 2832.04 844.031H2881.93V814.301C2881.93 797.238 2876.56 784.005 2865.85 774.597C2855.26 765.188 2840.06 760.483 2820.25 760.483C2801.81 760.483 2786.42 765.25 2774.09 774.784C2761.76 784.318 2755.59 796.109 2755.59 810.161L2745.5 809.785C2745.5 793.224 2752.72 779.174 2767.18 767.634C2781.64 756.093 2799.32 750.322 2820.25 750.322C2842.06 750.322 2859.37 755.842 2872.21 766.881C2885.04 777.795 2891.64 793.224 2892.02 813.172V910.455C2892.02 932.786 2893.77 947.964 2897.26 955.993V957.685H2885.67ZM2802.32 951.477C2821.25 951.477 2837.51 947.212 2851.1 938.682C2864.79 930.151 2875.07 918.17 2881.93 902.741V854.381H2835.2C2806.3 854.381 2784.18 860.152 2768.87 871.692C2756.39 881.101 2750.17 892.831 2750.17 906.881C2750.17 919.3 2755.1 929.837 2764.94 938.492C2774.78 947.148 2787.24 951.477 2802.32 951.477Z" fill="black"/>
<path d="M2979.85 699.138V754.085H3025.83V764.435H2979.85V908.949C2979.85 923.377 2982.16 934.039 2986.77 940.939C2991.51 947.838 2999.35 951.287 3010.32 951.287C3015.79 951.287 3022.47 950.724 3030.33 949.595L3032 959.19C3027.89 960.697 3020.85 961.45 3010.88 961.45C2996.19 961.45 2985.66 957.372 2979.29 949.218C2972.94 940.939 2969.71 927.955 2969.58 910.267V764.435H2932.2V754.085H2969.58V699.138H2979.85Z" fill="black"/>
<path d="M2141.23 670.861H2011.87L1948.97 1033.9H1861.23L1924.13 670.861H1796.26L1809.13 598.134H2154.1L2141.23 670.861Z" fill="#459ADA"/>
<path d="M2248.45 704.084C2276.98 704.482 2301.54 711.866 2322.11 726.232C2342.86 740.398 2358.05 760.051 2367.63 785.192C2377.4 810.132 2380.89 837.866 2378.11 868.395C2373.51 919.872 2355.54 961.573 2324.2 993.497C2293.06 1025.22 2254.52 1040.69 2208.61 1039.89C2180.46 1039.49 2156.1 1032.31 2135.55 1018.34C2114.98 1004.17 2099.81 984.618 2090.02 959.678C2080.24 934.737 2076.75 907.203 2079.55 877.074C2084.73 823.6 2102.9 781.102 2134.04 749.575C2165.2 718.051 2203.32 702.886 2248.45 704.084ZM2163.09 907.901C2163.49 927.055 2167.98 942.22 2176.57 953.393C2185.15 964.367 2197.23 970.054 2212.8 970.452C2238.75 971.25 2259.12 959.378 2273.89 934.837C2288.66 910.095 2295.55 877.672 2294.55 837.568C2293.75 818.413 2289.06 803.149 2280.48 791.775C2272.09 780.204 2260.01 774.217 2244.24 773.819C2219.09 773.021 2198.94 784.892 2183.75 809.434C2168.78 833.776 2161.89 866.599 2163.09 907.901Z" fill="#459ADA"/>
<path d="M1825.97 980.269H1507.82L1514.96 941.959H1832.75L1825.97 980.269Z" fill="#459ADA"/>
<path d="M1848.96 865.341H1530.81L1537.96 827.032H1855.74L1848.96 865.341Z" fill="#459ADA"/>
<path d="M1869 750.413H1550.86L1558.01 712.105H1875.78L1869 750.413Z" fill="#459ADA"/>
<path d="M363.768 927.198C449.151 927.198 518.369 858.011 518.369 772.665H489.267C489.267 841.946 433.08 898.109 363.768 898.109V927.198ZM518.369 772.665C518.369 687.319 449.151 618.132 363.768 618.132V647.22C433.08 647.22 489.267 703.383 489.267 772.665H518.369ZM363.768 618.132C278.384 618.132 209.167 687.319 209.167 772.665H238.268C238.268 703.383 294.455 647.22 363.768 647.22V618.132ZM209.167 772.665C209.167 858.011 278.384 927.198 363.768 927.198V898.109C294.455 898.109 238.268 841.946 238.268 772.665H209.167Z" fill="#0E83B6"/>
<path d="M518.368 692.672C653.977 692.672 763.911 582.787 763.911 447.238C763.911 311.688 653.977 201.803 518.368 201.803C382.759 201.803 272.825 311.688 272.825 447.238C272.825 582.787 382.759 692.672 518.368 692.672Z" fill="#459ADA"/>
<path d="M272.825 545.411C423.503 545.411 545.651 423.317 545.651 272.705C545.651 122.094 423.503 0 272.825 0C122.148 0 0 122.094 0 272.705C0 423.317 122.148 545.411 272.825 545.411Z" fill="#00A2D6"/>
<path d="M621.038 1091.42C649.495 1112.06 689.301 1105.73 709.946 1077.28C730.592 1048.84 724.259 1009.05 695.799 988.411C667.342 967.774 627.537 974.105 606.891 1002.55C586.246 1031 592.579 1070.78 621.038 1091.42Z" fill="#0067A0"/>
<mask id="mask0" mask-type="alpha" maskUnits="userSpaceOnUse" x="0" y="0" width="546" height="546">
<path d="M272.825 545.411C423.503 545.411 545.651 423.317 545.651 272.705C545.651 122.094 423.503 0 272.825 0C122.148 0 0 122.094 0 272.705C0 423.317 122.148 545.411 272.825 545.411Z" fill="#C4C4C4"/>
</mask>
<g mask="url(#mask0)">
<path d="M763.911 447.238C763.911 582.787 653.977 692.672 518.368 692.672C382.759 692.672 272.825 582.787 272.825 447.238C272.825 311.688 382.759 201.803 518.368 201.803C653.977 201.803 763.911 311.688 763.911 447.238Z" fill="white"/>
</g>
<mask id="mask1" mask-type="alpha" maskUnits="userSpaceOnUse" x="272" y="201" width="492" height="492">
<path d="M518.368 692.672C653.977 692.672 763.911 582.787 763.911 447.238C763.911 311.688 653.977 201.803 518.368 201.803C382.759 201.803 272.825 311.688 272.825 447.238C272.825 582.787 382.759 692.672 518.368 692.672Z" fill="#C4C4C4"/>
</mask>
<g mask="url(#mask1)">
<path d="M363.768 927.198C449.151 927.198 518.369 858.011 518.369 772.665C518.369 687.319 449.151 618.132 363.768 618.132C278.384 618.132 209.167 687.319 209.167 772.665C209.167 858.011 278.384 927.198 363.768 927.198Z" fill="white"/>
</g>
<mask id="mask2" mask-type="alpha" maskUnits="userSpaceOnUse" x="621" y="988" width="127" height="141">
<path d="M747.328 1025.77L695.8 988.411L621.037 1091.42L672.564 1128.79L747.328 1025.77Z" fill="#C4C4C4"/>
</mask>
<g mask="url(#mask2)">
<path d="M621.038 1091.42C649.495 1112.06 689.301 1105.73 709.946 1077.28C730.592 1048.84 724.259 1009.05 695.799 988.411C667.342 967.774 627.537 974.105 606.891 1002.55C586.246 1031 592.579 1070.78 621.038 1091.42Z" fill="#96CAE0"/>
</g>
</g>
<defs>
<clipPath id="clip0">
<rect width="3032" height="1129" fill="white"/>
</clipPath>
</defs>
</svg>
