<svg width="2196" height="818" viewBox="0 0 2196 818" fill="none" xmlns="http://www.w3.org/2000/svg">
<g clip-path="url(#clip0)">
<path d="M714.867 633.07C712.972 653.521 705.978 689.245 693.886 700.243C681.794 711.149 645.371 716.604 624.615 716.604C610.629 716.604 578.221 713.058 567.392 705.969C556.653 698.788 548.305 688.655 542.35 675.566C536.394 662.387 533.372 627.344 533.281 610.439V579.763C533.281 562.858 536.214 527.769 542.08 514.499C547.945 501.138 556.292 490.822 567.121 483.551C578.04 476.28 610.538 472.644 624.615 472.644C645.191 472.644 681.569 478.097 693.75 489.004C705.933 499.911 712.972 535.545 714.867 555.904H687.557C685.483 537.635 679.165 523.774 668.608 514.322C658.049 504.778 643.386 500.006 624.615 500.006C605.485 500.006 590.009 507.277 578.187 521.821C566.456 536.363 560.591 555.859 560.591 580.308V609.485C560.591 625.118 563.207 638.979 568.441 651.067C573.675 663.065 581.165 672.426 590.911 679.152C600.748 685.878 611.982 689.241 624.615 689.241C643.475 689.241 658.185 684.561 668.743 675.199C679.391 665.836 685.663 651.794 687.557 633.07H714.867Z" fill="black"/>
<path d="M801.395 551.678L791.919 550.86C779.467 550.86 769.044 554.95 760.651 563.13C752.26 571.219 746.755 582.581 744.138 597.214V693.876H736.828V546.361H744.138V577.036C748.109 566.766 754.064 558.631 762.005 552.632C769.946 546.633 779.917 543.634 791.919 543.634C796.161 543.634 799.59 544.133 802.207 545.133L801.395 551.678Z" fill="black"/>
<path d="M876.925 682.424L877.873 679.697L928.497 546.361H936.618L871.105 719.508L867.856 727.688C860.817 744.866 849.176 753.456 832.933 753.456C827.7 753.456 824.09 752.955 822.105 751.955L821.969 745.003C824.857 745.821 828.15 746.229 831.851 746.229C839.521 746.229 845.883 743.957 850.936 739.413C855.989 734.959 860.366 727.643 864.066 717.462L873 693.058L814.659 546.361H822.646L876.925 682.424Z" fill="black"/>
<path d="M1076.44 621.482C1076.44 644.477 1071.53 662.746 1061.69 676.29C1051.85 689.832 1038.45 696.604 1021.49 696.604C1010.39 696.604 1000.51 694.331 991.845 689.786C983.182 685.242 976.414 678.97 971.541 670.972V750.592H964.232V546.361H971.541V572.674C976.594 563.312 983.408 556.132 991.981 551.133C1000.55 546.133 1010.3 543.634 1021.22 543.634C1038.36 543.634 1051.85 550.269 1061.69 563.539C1071.53 576.718 1076.44 595.26 1076.44 619.164V621.482ZM1069 618.619C1069 597.442 1064.8 580.9 1056.41 568.992C1048.11 556.995 1036.42 550.996 1021.35 550.996C1009.08 550.996 998.658 554.223 990.085 560.676C981.513 567.039 975.331 576.218 971.541 588.216V657.202C975.331 667.383 981.513 675.29 990.085 680.925C998.748 686.469 1009.26 689.241 1021.62 689.241C1036.6 689.241 1048.24 683.242 1056.55 671.245C1064.85 659.247 1069 641.706 1069 618.619Z" fill="black"/>
<path d="M1911.71 596.26H1790.73V703.876H1763.42V475.371H1925.51V502.733H1790.73V568.625H1911.71V596.26Z" fill="black"/>
<path d="M1947.34 693.876H1940.04V546.361H1947.34V693.876ZM1936.25 500.279C1936.25 498.188 1936.97 496.417 1938.41 494.962C1939.86 493.417 1941.61 492.644 1943.69 492.644C1945.77 492.644 1947.52 493.417 1948.97 494.962C1950.5 496.417 1951.27 498.188 1951.27 500.279C1951.27 502.369 1950.5 504.142 1948.97 505.596C1947.52 507.051 1945.77 507.778 1943.69 507.778C1941.61 507.778 1939.86 507.051 1938.41 505.596C1936.97 504.142 1936.25 502.369 1936.25 500.279Z" fill="black"/>
<path d="M2090.02 693.876C2088.22 687.605 2087.31 678.607 2087.31 666.882C2081.54 676.334 2073.63 683.652 2063.62 688.832C2053.6 694.013 2042.28 696.604 2029.65 696.604C2016.1 696.604 2005.18 692.922 1996.88 685.56C1988.68 678.107 1984.57 668.427 1984.57 656.521C1984.57 642.978 1990.61 632.161 2002.71 624.072C2014.89 615.892 2031.04 611.711 2051.17 611.529H2087.31V589.989C2087.31 577.626 2083.42 568.038 2075.66 561.222C2067.99 554.405 2056.98 550.996 2042.64 550.996C2029.28 550.996 2018.13 554.45 2009.2 561.357C2000.27 568.265 1995.8 576.808 1995.8 586.989L1988.49 586.717C1988.49 574.718 1993.72 564.538 2004.2 556.177C2014.67 547.815 2027.47 543.634 2042.64 543.634C2058.43 543.634 2070.97 547.633 2080.27 555.631C2089.56 563.539 2094.34 574.718 2094.62 589.171V659.656C2094.62 675.835 2095.88 686.833 2098.41 692.65V693.876H2090.02ZM2029.65 689.378C2043.36 689.378 2055.14 686.287 2064.98 680.107C2074.9 673.927 2082.34 665.246 2087.31 654.067V619.028H2053.46C2032.53 619.028 2016.51 623.209 2005.42 631.571C1996.38 638.388 1991.88 646.886 1991.88 657.066C1991.88 666.064 1995.45 673.699 2002.58 679.97C2009.7 686.241 2018.73 689.378 2029.65 689.378Z" fill="black"/>
<path d="M2158.23 506.55V546.361H2191.53V553.86H2158.23V658.565C2158.23 669.019 2159.9 676.744 2163.24 681.743C2166.68 686.742 2172.35 689.241 2180.3 689.241C2184.26 689.241 2189.1 688.833 2194.79 688.015L2196 694.967C2193.02 696.059 2187.92 696.604 2180.71 696.604C2170.06 696.604 2162.43 693.65 2157.82 687.742C2153.23 681.743 2150.88 672.336 2150.79 659.52V553.86H2123.72V546.361H2150.79V506.55H2158.23Z" fill="black"/>
<path d="M1550.83 486.062H1457.15L1411.59 749.097H1348.04L1393.6 486.062H1300.98L1310.31 433.369H1560.16L1550.83 486.062Z" fill="#24763B"/>
<path d="M1628.49 510.133C1649.16 510.421 1666.94 515.771 1681.84 526.179C1696.87 536.443 1707.87 550.682 1714.82 568.898C1721.89 586.968 1724.42 607.063 1722.4 629.182C1719.07 666.479 1706.06 696.692 1683.36 719.823C1660.81 742.808 1632.89 754.013 1599.64 753.435C1579.25 753.145 1561.61 747.94 1546.72 737.821C1531.83 727.558 1520.84 713.389 1513.75 695.32C1506.66 677.249 1504.13 657.299 1506.16 635.47C1509.92 596.726 1523.08 565.935 1545.63 543.093C1568.2 520.252 1595.81 509.265 1628.49 510.133ZM1566.67 657.805C1566.96 671.683 1570.21 682.67 1576.43 690.766C1582.65 698.717 1591.4 702.837 1602.67 703.126C1621.47 703.704 1636.22 695.102 1646.92 677.321C1657.62 659.395 1662.61 635.903 1661.89 606.847C1661.31 592.968 1657.91 581.909 1651.69 573.668C1645.62 565.284 1636.87 560.946 1625.45 560.658C1607.23 560.08 1592.63 568.681 1581.63 586.462C1570.79 604.099 1565.8 627.88 1566.67 657.805Z" fill="#24763B"/>
<path d="M1322.5 710.239H1092.07L1097.25 682.482H1327.41L1322.5 710.239Z" fill="#24763B"/>
<path d="M1339.15 626.97H1108.73L1113.91 599.213H1344.07L1339.15 626.97Z" fill="#24763B"/>
<path d="M1353.67 543.7H1123.25L1128.43 515.945H1358.58L1353.67 543.7Z" fill="#24763B"/>
<path d="M263.467 671.788C325.308 671.788 375.441 621.659 375.441 559.823H354.363C354.363 610.02 313.668 650.712 263.467 650.712V671.788ZM375.441 559.823C375.441 497.987 325.308 447.858 263.467 447.858V468.934C313.668 468.934 354.363 509.626 354.363 559.823H375.441ZM263.467 447.858C201.626 447.858 151.494 497.987 151.494 559.823H172.571C172.571 509.626 213.266 468.934 263.467 468.934V447.858ZM151.494 559.823C151.494 621.659 201.626 671.788 263.467 671.788V650.712C213.266 650.712 172.571 610.02 172.571 559.823H151.494Z" fill="#006E1F"/>
<path d="M375.441 501.865C473.659 501.865 553.281 422.249 553.281 324.039C553.281 225.829 473.659 146.213 375.441 146.213C277.223 146.213 197.6 225.829 197.6 324.039C197.6 422.249 277.223 501.865 375.441 501.865Z" fill="#75B988"/>
<path d="M197.6 395.169C306.733 395.169 395.201 306.708 395.201 197.585C395.201 88.4616 306.733 0 197.6 0C88.4688 0 0 88.4616 0 197.585C0 306.708 88.4688 395.169 197.6 395.169Z" fill="#23863F"/>
<path d="M449.802 790.773C470.413 805.725 499.243 801.138 514.196 780.528C529.149 759.918 524.562 731.091 503.95 716.139C483.339 701.187 454.509 705.773 439.556 726.384C424.603 746.993 429.189 775.821 449.802 790.773Z" fill="#006E1F"/>
<mask id="mask0" mask-type="alpha" maskUnits="userSpaceOnUse" x="0" y="0" width="396" height="396">
<path d="M197.6 395.169C306.733 395.169 395.201 306.708 395.201 197.585C395.201 88.4616 306.733 0 197.6 0C88.4688 0 0 88.4616 0 197.585C0 306.708 88.4688 395.169 197.6 395.169Z" fill="#C4C4C4"/>
</mask>
<g mask="url(#mask0)">
<path d="M553.281 324.039C553.281 422.249 473.659 501.865 375.441 501.865C277.223 501.865 197.6 422.249 197.6 324.039C197.6 225.829 277.223 146.213 375.441 146.213C473.659 146.213 553.281 225.829 553.281 324.039Z" fill="white"/>
</g>
<mask id="mask1" mask-type="alpha" maskUnits="userSpaceOnUse" x="197" y="146" width="357" height="356">
<path d="M375.441 501.865C473.659 501.865 553.281 422.249 553.281 324.039C553.281 225.829 473.659 146.213 375.441 146.213C277.223 146.213 197.6 225.829 197.6 324.039C197.6 422.249 277.223 501.865 375.441 501.865Z" fill="#C4C4C4"/>
</mask>
<g mask="url(#mask1)">
<path d="M263.467 671.788C325.308 671.788 375.441 621.659 375.441 559.823C375.441 497.987 325.308 447.858 263.467 447.858C201.626 447.858 151.494 497.987 151.494 559.823C151.494 621.659 201.626 671.788 263.467 671.788Z" fill="white"/>
</g>
<mask id="mask2" mask-type="alpha" maskUnits="userSpaceOnUse" x="449" y="716" width="93" height="102">
<path d="M541.27 743.21L503.95 716.138L449.801 790.773L487.121 817.846L541.27 743.21Z" fill="#C4C4C4"/>
</mask>
<g mask="url(#mask2)">
<path d="M449.802 790.773C470.413 805.725 499.243 801.138 514.196 780.528C529.149 759.918 524.562 731.091 503.95 716.139C483.339 701.187 454.509 705.773 439.556 726.384C424.603 746.993 429.189 775.821 449.802 790.773Z" fill="#75B988"/>
</g>
</g>
<defs>
<clipPath id="clip0">
<rect width="2196" height="818" fill="white"/>
</clipPath>
</defs>
</svg>
