<svg width="1663" height="321" viewBox="0 0 1663 321" fill="none" xmlns="http://www.w3.org/2000/svg">
<path d="M181.867 200.07C179.972 220.521 172.978 256.245 160.886 267.243C148.794 278.149 112.371 283.604 91.615 283.604C77.6289 283.604 45.2209 280.058 34.3924 272.969C23.6535 265.788 15.3055 255.655 9.3498 242.566C3.39412 229.387 0.372146 194.344 0.28125 177.439V146.763C0.28125 129.858 3.21362 94.7688 9.07972 81.499C14.9445 68.1384 23.2925 57.8218 34.121 50.5507C45.0404 43.2796 77.538 39.644 91.615 39.644C112.191 39.644 148.569 45.0974 160.75 56.0041C172.933 66.9107 179.972 102.545 181.867 122.904H154.557C152.483 104.635 146.165 90.7742 135.608 81.3217C125.049 71.7784 110.386 67.006 91.615 67.006C72.4847 67.006 57.0086 74.2771 45.1868 88.8207C33.4559 103.363 27.5912 122.859 27.5912 147.308V176.485C27.5912 192.118 30.2074 205.979 35.4412 218.067C40.6749 230.065 48.1653 239.426 57.911 246.152C67.7475 252.878 78.9818 256.241 91.615 256.241C110.475 256.241 125.185 251.561 135.743 242.199C146.391 232.836 152.663 218.794 154.557 200.07H181.867Z" fill="black"/>
<path d="M268.395 118.678L258.919 117.86C246.467 117.86 236.044 121.95 227.651 130.13C219.26 138.219 213.755 149.581 211.138 164.214V260.876H203.828V113.361H211.138V144.036C215.109 133.766 221.064 125.631 229.005 119.632C236.946 113.633 246.917 110.634 258.919 110.634C263.161 110.634 266.59 111.133 269.207 112.133L268.395 118.678Z" fill="black"/>
<path d="M343.925 249.424L344.873 246.697L395.497 113.361H403.618L338.105 286.508L334.856 294.688C327.817 311.866 316.176 320.456 299.933 320.456C294.7 320.456 291.09 319.955 289.105 318.955L288.969 312.003C291.857 312.821 295.15 313.229 298.851 313.229C306.521 313.229 312.883 310.957 317.936 306.413C322.989 301.959 327.366 294.643 331.066 284.462L340 260.058L281.659 113.361H289.646L343.925 249.424Z" fill="black"/>
<path d="M543.445 188.482C543.445 211.477 538.527 229.746 528.69 243.29C518.854 256.832 505.454 263.604 488.489 263.604C477.389 263.604 467.508 261.331 458.845 256.786C450.182 252.242 443.414 245.97 438.541 237.972V317.592H431.232V113.361H438.541V139.674C443.594 130.312 450.408 123.132 458.981 118.133C467.553 113.133 477.298 110.634 488.218 110.634C505.363 110.634 518.854 117.269 528.69 130.539C538.527 143.718 543.445 162.26 543.445 186.164V188.482ZM536 185.619C536 164.442 531.803 147.9 523.412 135.992C515.11 123.995 503.424 117.996 488.354 117.996C476.081 117.996 465.658 121.223 457.085 127.676C448.513 134.039 442.331 143.218 438.541 155.216V224.202C442.331 234.383 448.513 242.29 457.085 247.925C465.748 253.469 476.262 256.241 488.624 256.241C503.604 256.241 515.244 250.242 523.546 238.245C531.849 226.247 536 208.706 536 185.619Z" fill="black"/>
<path d="M1378.71 163.26H1257.73V270.876H1230.42V42.3708H1392.51V69.7328H1257.73V135.625H1378.71V163.26Z" fill="black"/>
<path d="M1414.34 260.876H1407.04V113.361H1414.34V260.876ZM1403.25 67.2787C1403.25 65.1883 1403.97 63.4166 1405.41 61.9624C1406.86 60.4173 1408.61 59.644 1410.69 59.644C1412.77 59.644 1414.52 60.4173 1415.97 61.9624C1417.5 63.4166 1418.27 65.1883 1418.27 67.2787C1418.27 69.3691 1417.5 71.1422 1415.97 72.5964C1414.52 74.0506 1412.77 74.7777 1410.69 74.7777C1408.61 74.7777 1406.86 74.0506 1405.41 72.5964C1403.97 71.1422 1403.25 69.3691 1403.25 67.2787Z" fill="black"/>
<path d="M1557.02 260.876C1555.22 254.605 1554.31 245.607 1554.31 233.882C1548.54 243.334 1540.63 250.652 1530.62 255.832C1520.6 261.013 1509.28 263.604 1496.65 263.604C1483.1 263.604 1472.18 259.922 1463.88 252.56C1455.68 245.107 1451.57 235.427 1451.57 223.521C1451.57 209.978 1457.61 199.161 1469.71 191.072C1481.89 182.892 1498.04 178.711 1518.17 178.529H1554.31V156.989C1554.31 144.626 1550.42 135.038 1542.66 128.222C1534.99 121.405 1523.98 117.996 1509.64 117.996C1496.28 117.996 1485.13 121.45 1476.2 128.357C1467.27 135.265 1462.8 143.808 1462.8 153.989L1455.49 153.717C1455.49 141.718 1460.72 131.538 1471.2 123.177C1481.67 114.815 1494.47 110.634 1509.64 110.634C1525.43 110.634 1537.97 114.633 1547.27 122.631C1556.56 130.539 1561.34 141.718 1561.62 156.171V226.656C1561.62 242.835 1562.88 253.833 1565.41 259.65V260.876H1557.02ZM1496.65 256.378C1510.36 256.378 1522.14 253.287 1531.98 247.107C1541.9 240.927 1549.34 232.246 1554.31 221.067V186.028H1520.46C1499.53 186.028 1483.51 190.209 1472.42 198.571C1463.38 205.388 1458.88 213.886 1458.88 224.066C1458.88 233.064 1462.45 240.699 1469.58 246.97C1476.7 253.241 1485.73 256.378 1496.65 256.378Z" fill="black"/>
<path d="M1625.23 73.5503V113.361H1658.53V120.86H1625.23V225.565C1625.23 236.019 1626.9 243.744 1630.24 248.743C1633.68 253.742 1639.35 256.241 1647.3 256.241C1651.26 256.241 1656.1 255.833 1661.79 255.015L1663 261.967C1660.02 263.059 1654.92 263.604 1647.71 263.604C1637.06 263.604 1629.43 260.65 1624.82 254.742C1620.23 248.743 1617.88 239.336 1617.79 226.52V120.86H1590.72V113.361H1617.79V73.5503H1625.23Z" fill="black"/>
<path d="M1017.83 53.0618H924.145L878.592 316.097H815.044L860.597 53.0618H767.982L777.308 0.368652H1027.16L1017.83 53.0618Z" fill="#24763B"/>
<path d="M1095.49 77.1329C1116.16 77.4213 1133.94 82.7706 1148.84 93.1794C1163.87 103.443 1174.87 117.682 1181.82 135.898C1188.89 153.968 1191.42 174.063 1189.4 196.182C1186.07 233.479 1173.06 263.692 1150.36 286.823C1127.81 309.808 1099.89 321.013 1066.64 320.435C1046.25 320.145 1028.61 314.94 1013.72 304.821C998.825 294.558 987.839 280.389 980.751 262.32C973.664 244.249 971.135 224.299 973.163 202.47C976.918 163.726 990.078 132.935 1012.63 110.093C1035.2 87.2518 1062.81 76.2648 1095.49 77.1329ZM1033.67 224.805C1033.96 238.683 1037.21 249.67 1043.43 257.766C1049.65 265.717 1058.4 269.837 1069.67 270.126C1088.47 270.704 1103.22 262.102 1113.92 244.321C1124.62 226.395 1129.61 202.903 1128.89 173.847C1128.31 159.968 1124.91 148.909 1118.69 140.668C1112.62 132.284 1103.87 127.946 1092.45 127.658C1074.23 127.08 1059.63 135.681 1048.63 153.462C1037.79 171.099 1032.8 194.88 1033.67 224.805Z" fill="#24763B"/>
<path d="M789.5 277.239H559.072L564.249 249.482H794.414L789.5 277.239Z" fill="#24763B"/>
<path d="M806.151 193.97H575.73L580.907 166.213H811.065L806.151 193.97Z" fill="#24763B"/>
<path d="M820.669 110.7H590.248L595.425 82.9446H825.582L820.669 110.7Z" fill="#24763B"/>
</svg>
